#N canvas 280 37 1034 693 10;
#X obj 92 106 bng 80 250 50 0 empty empty TEMPO 17 40 0 15 -234823
-262144 -262144;
#N canvas 0 0 450 300 (subpatch) 0;
#X array array1 129667 float 0;
#X coords 0 1 129666 -1 200 140 1 0 0;
#X restore 789 37 graph;
#X obj 657 164 adc~ 1;
#X obj 657 185 tabwrite~ array1;
#X obj 253 596 output~;
#X obj 657 80 bng 80 250 50 0 empty empty RECORD 14 40 0 15 -40132
-228856 -228856;
#X msg 575 164 const 0;
#X obj 575 185 s array1;
#X obj 493 80 bng 80 250 50 0 empty empty MUTE 23 40 0 15 -4032 -4160
-4160;
#X obj 433 255 line~;
#X msg 519 193 1 500;
#X obj 281 39 vsl 15 200 0 1 0 0 empty empty VOLUME -18 -9 0 15 -257985
-1 -1 0 1;
#X obj 411 80 bng 80 250 50 0 empty empty MAX 26 40 0 15 -159808 -262144
-262144;
#N canvas 313 37 519 732 looper 0;
#X obj 29 105 inlet;
#X obj 60 649 hip~ 5;
#X obj 112 465 +~ 1;
#X obj 119 511 tabread4~ array1;
#N canvas 780 161 515 369 recordTime 0;
#N canvas 675 180 506 456 tapMS 0;
#X obj 77 317 timer;
#X obj 24 167 % 2;
#X floatatom 54 129 5 0 0 0 - - -;
#X obj 53 88 float;
#X obj 125 87 + 1;
#X floatatom 66 361 5 0 0 0 - - -;
#X floatatom 55 204 5 0 0 0 - - -;
#X obj 42 275 bng 15 250 50 0 empty empty empty 17 7 0 10 -262144 -1
-1;
#X obj 105 277 bng 15 250 50 0 empty empty empty 17 7 0 10 -262144
-1 -1;
#X obj 53 229 select 0;
#X obj 59 15 inlet;
#X obj 57 55 bng 15 250 50 0 empty empty empty 17 7 0 10 -262144 -1
-1;
#X obj 50 419 outlet;
#X text 100 168 timer with % so you only need one button to click;
#X connect 0 0 5 0;
#X connect 1 0 6 0;
#X connect 2 0 1 0;
#X connect 3 0 2 0;
#X connect 3 0 4 0;
#X connect 4 0 3 1;
#X connect 5 0 12 0;
#X connect 6 0 9 0;
#X connect 7 0 0 0;
#X connect 8 0 0 1;
#X connect 9 0 7 0;
#X connect 9 1 8 0;
#X connect 10 0 11 0;
#X connect 11 0 3 0;
#X restore 61 -2238 pd tapMS;
#X floatatom 61 -2198 10 0 0 0 - - -;
#X msg 62 -1978 resize \$1;
#X obj 62 -1938 s array1;
#X obj 78 -2059 + 3;
#X obj 61 -2103 i;
#X floatatom 62 -2017 10 0 0 0 - - -;
#X obj 61 -2151 * 44.1;
#X obj 61 -2278 inlet;
#X text 144 -1978 lengthens array based on tempo tapped by button;
#X obj 272 -2151 outlet;
#X text 269 -2173 outputs ms;
#X text 109 -2057 for 4 point interpolation;
#X text 123 -2281 uses the timer function with %2 so you only have
to click one button to establish tempo;
#X connect 0 0 1 0;
#X connect 1 0 7 0;
#X connect 1 0 10 0;
#X connect 2 0 3 0;
#X connect 4 0 6 0;
#X connect 5 0 4 0;
#X connect 6 0 2 0;
#X connect 7 0 5 0;
#X connect 8 0 0 0;
#X restore 150 170 pd recordTime;
#X obj 57 556 *~;
#X obj 25 415 -~ 0.5;
#X obj 26 453 *~ 0.5;
#X obj 27 484 cos~;
#X obj 108 418 *~;
#X obj 94 604 *~;
#X obj 26 363 phasor~ 0;
#X obj 77 232 / 1000;
#X floatatom 60 286 5 0 0 0 - - -;
#X floatatom 30 333 5 0 0 0 - - -;
#X floatatom 187 253 5 0 0 0 - - -;
#X obj 26 288 /;
#X msg 26 240 1;
#X obj 147 357 * 44.1;
#X obj 308 537 inlet~;
#X obj 68 693 outlet~;
#X text 96 66 takes tempo in ms \, uses it to feed phasor to loop the
sample in the array;
#X text 316 486 takes the line~ volume values;
#X text 251 174 changes the array size from ms b/w taps;
#X obj 50 172 bng 15 250 50 0 empty empty empty 17 7 0 10 -262144 -1
-1;
#X connect 0 0 4 0;
#X connect 0 0 24 0;
#X connect 1 0 20 0;
#X connect 2 0 3 0;
#X connect 3 0 5 1;
#X connect 4 0 12 0;
#X connect 4 0 15 0;
#X connect 5 0 10 0;
#X connect 6 0 7 0;
#X connect 7 0 8 0;
#X connect 8 0 5 0;
#X connect 9 0 2 0;
#X connect 10 0 1 0;
#X connect 11 0 6 0;
#X connect 11 0 9 0;
#X connect 12 0 13 0;
#X connect 13 0 16 1;
#X connect 14 0 11 0;
#X connect 15 0 18 0;
#X connect 16 0 14 0;
#X connect 17 0 16 0;
#X connect 18 0 9 1;
#X connect 19 0 10 1;
#X connect 24 0 17 0;
#X restore 158 304 pd looper;
#X text 71 79 give 3 taps at least;
#X obj 575 80 bng 80 250 50 0 empty empty ERASE 17 40 0 15 -151618
-262144 -262144;
#X msg 519 172 0 500;
#X msg 756 413 linear 32 100 105;
#X msg 757 549 exponential 32 10 5000;
#X msg 756 497 linear 32 100 2015;
#X msg 756 434 linear 8 75 100;
#X msg 756 455 linear 32 50 2175;
#X msg 757 572 exponential 8 50 175;
#X obj 609 392 fdn~ 64 40000;
#X msg 756 519 linear 32 200 204;
#X msg 756 386 lines 501 752 5003 39000 105 206 307 408;
#X msg 756 476 linear 32 1000 18;
#X obj 411 164 delay 500;
#X msg 383 172 1;
#X obj 411 185 delay 500;
#X msg 383 193 0;
#X obj 576 493 spigot~;
#X obj 502 420 tgl 30 0 empty empty REVERBS -13 -10 0 15 -261234 -1
-1 1 1;
#X obj 92 505 spigot~;
#X obj 190 422 tgl 30 0 empty empty DRY 3 -10 0 15 -232576 -1 -1 0
1;
#X msg 640 329 reset;
#X floatatom 697 329 5 0 0 0 - - -;
#X floatatom 745 328 5 0 0 0 - - -;
#X msg 745 302 0;
#X msg 697 303 1;
#X obj 436 522 *~;
#X obj 462 355 vsl 15 128 0 1 0 0 empty empty REVERB_VOLUME -27 -9
0 10 -261234 -1 -1 2100 1;
#X msg 758 595 exponential 64 1000 10;
#X text 222 648 set this for sound guy;
#X connect 0 0 13 0;
#X connect 2 0 3 0;
#X connect 5 0 3 0;
#X connect 5 0 10 0;
#X connect 5 0 6 0;
#X connect 6 0 7 0;
#X connect 8 0 16 0;
#X connect 8 0 29 0;
#X connect 9 0 13 1;
#X connect 10 0 9 0;
#X connect 11 0 9 0;
#X connect 12 0 10 0;
#X connect 12 0 27 0;
#X connect 13 0 23 0;
#X connect 13 0 33 0;
#X connect 15 0 6 0;
#X connect 16 0 9 0;
#X connect 17 0 23 0;
#X connect 18 0 23 0;
#X connect 19 0 23 0;
#X connect 20 0 23 0;
#X connect 21 0 23 0;
#X connect 22 0 23 0;
#X connect 23 0 31 0;
#X connect 23 1 31 0;
#X connect 24 0 23 0;
#X connect 25 0 23 0;
#X connect 26 0 23 0;
#X connect 27 0 28 0;
#X connect 28 0 11 0;
#X connect 29 0 30 0;
#X connect 30 0 11 0;
#X connect 31 1 40 0;
#X connect 32 0 31 1;
#X connect 33 1 4 0;
#X connect 33 1 4 1;
#X connect 34 0 33 1;
#X connect 35 0 23 0;
#X connect 36 0 23 1;
#X connect 37 0 23 2;
#X connect 38 0 37 0;
#X connect 39 0 36 0;
#X connect 40 0 4 0;
#X connect 40 0 4 1;
#X connect 41 0 40 1;
#X connect 42 0 23 0;
